<svg width="172" height="491" viewBox="0 0 172 491" fill="none" xmlns="http://www.w3.org/2000/svg">
<path d="M116.839 94.6593C116.839 94.6593 127.526 94.7374 131.045 113.064C134.59 131.39 137.718 155.781 141.889 164.944C146.06 174.107 153.515 190.507 156.982 207.115C160.449 223.723 161.882 234.214 162.691 237.676C163.499 241.138 166.861 255.664 167.148 260.011C167.409 264.358 166.001 274.64 165.61 276.437C165.193 278.207 161.83 287.448 161.439 287.838C161.022 288.255 159.145 285.912 159.302 284.48C159.458 283.049 160.683 275.421 160.683 275.421L158.937 263.968C158.937 263.968 157.712 273.755 156.174 274.458C154.636 275.161 153.176 274.719 152.811 274.51C152.446 274.302 153.072 265.738 151.325 258.865C149.579 251.993 153.202 245.329 151.169 239.212C149.136 233.094 132.609 198.967 129.559 187.878C126.509 176.762 115.692 147.243 112.433 139.381C109.149 131.546 110.348 94.2688 116.839 94.6593Z" fill="#FFEDE5"/>
<path d="M116.786 132.379C115.822 129.021 113.554 129.151 110.947 130.765C111.234 134.566 111.729 137.689 112.433 139.381C113.293 141.412 114.649 144.926 116.239 149.195C117.308 145.707 118.715 139.147 116.786 132.379Z" fill="#DD825C"/>
<path d="M131.332 174.446C131.227 174.446 131.123 174.394 131.097 174.29C131.045 174.159 131.123 174.003 131.254 173.951L138.057 171.478C138.187 171.426 138.344 171.504 138.396 171.634C138.448 171.765 138.37 171.921 138.24 171.973L131.436 174.446C131.384 174.446 131.358 174.446 131.332 174.446Z" fill="#472938"/>
<path d="M52.3225 95.1549C52.3225 95.1549 39.7582 97.2895 36.1609 113.091C32.0163 131.286 29.4878 155.808 25.317 164.971C21.1463 174.134 13.6911 190.534 10.2242 207.142C6.75727 223.75 5.29752 234.215 4.48944 237.677C3.68136 241.139 0.318704 255.664 0.0319662 260.012C-0.228705 264.359 1.17892 274.641 1.56992 276.438C1.96093 278.234 5.34965 287.449 5.74066 287.839C6.15773 288.256 8.03456 285.913 7.87816 284.481C7.72175 283.05 6.4966 275.422 6.4966 275.422L8.2431 263.969C8.2431 263.969 9.46825 273.756 11.0062 274.459C12.5442 275.162 14.0039 274.719 14.3689 274.511C14.7338 274.303 14.1082 265.739 15.8547 258.866C17.6012 251.994 13.9779 245.33 16.0111 239.213C18.0443 233.095 34.5708 198.968 37.6468 187.879C40.6966 176.763 51.5144 147.244 54.7728 139.382C58.0573 131.547 58.8132 94.7384 52.3225 95.1549Z" fill="#FFEDE5"/>
<path d="M47.8129 130.038C49.2205 126.836 53.6519 129.126 56.2586 130.74C55.9719 134.541 55.4766 137.665 54.7728 139.357C53.9126 141.387 52.5571 144.902 50.967 149.171C48.9338 147.166 46.1707 133.786 47.8129 130.038Z" fill="#DD825C"/>
<path d="M35.9263 174.447C35.8742 174.447 35.8481 174.447 35.796 174.421L30.1915 171.401C30.0612 171.323 30.0091 171.193 30.0873 171.063C30.1655 170.933 30.2958 170.88 30.4262 170.959L36.0306 173.978C36.1609 174.056 36.2131 174.186 36.1349 174.317C36.1088 174.395 36.0045 174.447 35.9263 174.447Z" fill="#472938"/>
<path d="M124.633 490.363H156.591C157.373 490.363 157.999 489.738 157.999 488.957C157.999 487.994 157.946 486.64 157.816 485.312H124.059C123.877 486.666 123.694 487.916 123.512 489.061C123.408 489.738 123.955 490.363 124.633 490.363Z" fill="#3B2645"/>
<path d="M156.356 480.393C154.636 479.299 149.188 474.666 147.415 462.691C147.415 462.691 147.415 462.691 147.415 462.665C147.415 462.639 147.415 462.587 147.389 462.561C147.259 461.806 146.32 458.188 139.465 458.214C131.827 458.266 130.732 466.83 130.289 466.726C129.846 466.622 128.751 461.468 126.822 461.416C126.014 469.408 124.998 478.519 124.085 485.313H157.842C157.607 483.126 157.216 480.913 156.356 480.393Z" fill="#AB8DA8"/>
<path d="M130.263 466.726C130.732 466.831 131.801 458.266 139.439 458.214C146.295 458.162 147.233 461.78 147.363 462.561C147.259 461.859 147.155 461.13 147.077 460.349C146.477 454.309 146.659 443.09 146.659 443.09L128.491 443.558C128.491 443.558 127.761 451.628 126.77 461.39C128.751 461.442 129.82 466.622 130.263 466.726Z" fill="#FFEDE5"/>
<path d="M156.356 480.393C156.356 480.471 156.33 480.523 156.33 480.523C156.33 480.523 149.527 480.523 140.716 480.523C131.905 480.523 130.237 466.726 130.237 466.726C129.768 466.622 128.699 461.468 126.77 461.416C125.962 469.408 124.946 478.519 124.033 485.313H157.79C157.608 483.126 157.217 480.966 156.356 480.393Z" fill="#AB8DA8"/>
<path d="M140.742 480.523C149.553 480.523 156.356 480.523 156.356 480.523C156.356 480.523 156.356 480.471 156.382 480.392C156.382 480.392 156.382 480.392 156.356 480.366C154.636 479.273 149.188 474.639 147.415 462.665C147.415 462.665 147.415 462.665 147.415 462.639C147.415 462.613 147.415 462.561 147.389 462.535C147.259 461.78 146.321 458.162 139.465 458.188C131.827 458.24 130.733 466.804 130.289 466.7C130.263 466.726 131.932 480.523 140.742 480.523Z" fill="#543753"/>
<path d="M47.057 490.363H15.0988C14.3168 490.363 13.6912 489.738 13.6912 488.957C13.6912 487.994 13.7433 486.64 13.8736 485.312H47.6305C47.813 486.666 47.9954 487.916 48.1779 489.061C48.2822 489.738 47.7608 490.363 47.057 490.363Z" fill="#3B2645"/>
<path d="M15.3335 480.393C17.054 479.299 22.502 474.666 24.2745 462.691C24.2745 462.691 24.2745 462.691 24.2745 462.665C24.2745 462.639 24.2745 462.587 24.3006 462.561C24.4309 461.806 25.3694 458.188 32.225 458.214C39.8626 458.266 40.9575 466.83 41.4006 466.726C41.8438 466.622 42.9386 461.468 44.8675 461.416C45.6756 469.408 46.6922 478.519 47.6046 485.313H13.8738C14.0823 483.126 14.4994 480.913 15.3335 480.393Z" fill="#AB8DA8"/>
<path d="M41.4264 466.726C40.9572 466.831 39.8885 458.266 32.2508 458.214C25.3952 458.162 24.4568 461.78 24.3264 462.561C24.4307 461.859 24.535 461.13 24.6132 460.349C25.2127 454.309 25.0302 443.09 25.0302 443.09L43.199 443.558C43.199 443.558 43.9289 451.628 44.9194 461.39C42.9383 461.442 41.8696 466.622 41.4264 466.726Z" fill="#FFEDE5"/>
<path d="M15.3335 480.393C15.3335 480.471 15.3596 480.523 15.3596 480.523C15.3596 480.523 22.1631 480.523 30.9738 480.523C39.7844 480.523 41.4527 466.726 41.4527 466.726C41.9219 466.622 42.9907 461.468 44.9197 461.416C45.7277 469.408 46.7444 478.519 47.6567 485.313H13.8738C14.0823 483.126 14.4733 480.966 15.3335 480.393Z" fill="#AB8DA8"/>
<path d="M30.9476 480.523C22.1369 480.523 15.3334 480.523 15.3334 480.523C15.3334 480.523 15.3334 480.471 15.3074 480.392C15.3074 480.392 15.3074 480.392 15.3334 480.366C17.0539 479.273 22.5019 474.639 24.2744 462.665C24.2744 462.665 24.2744 462.665 24.2744 462.639C24.2744 462.613 24.2744 462.561 24.3005 462.535C24.4308 461.78 25.3693 458.162 32.2249 458.188C39.8626 458.24 40.9574 466.804 41.4005 466.7C41.4266 466.726 39.7583 480.523 30.9476 480.523Z" fill="#543753"/>
<path d="M141.602 354.01C139.361 343.832 139.569 314.885 137.327 274.953C135.789 247.672 128.36 226.664 123.799 216.096C82.013 229.84 54.9814 221.432 45.3887 217.215C27.22 257.668 31.495 304.811 32.0685 321.991C32.668 340.318 28.393 357.837 24.0137 382.306C19.6345 406.75 24.0137 444.027 24.0137 444.027C32.4855 447.072 43.4858 443.61 43.4858 443.61C43.0688 424.659 48.1779 406.724 52.87 384.519C57.5621 362.288 54.6947 347.658 60.8204 331.155C66.9462 314.651 82.1172 259.438 82.1172 259.438H88.634C91.0843 283.075 102.241 309.158 110.687 332.508C119.132 355.858 115.301 369.317 121.687 397.3C128.074 425.284 127.396 443.584 127.396 443.584C134.955 446.838 147.572 443.064 147.572 443.064C147.572 443.064 147.911 422.655 148.119 399.825C148.328 377.022 143.844 364.188 141.602 354.01Z" fill="#AB8DA8"/>
<path d="M123.772 216.122C121.661 211.228 120.175 208.547 120.175 208.547L49.3247 209.224C47.8911 211.853 46.5877 214.534 45.3625 217.241C54.9813 221.458 81.9868 229.867 123.772 216.122Z" fill="#3B2645"/>
<path d="M96.8711 72.585L97.966 88.334C98.1484 90.8069 100.051 92.7853 102.502 93.0456L116.865 94.6596C116.865 94.6596 122.104 132.483 113.267 148.102C104.431 163.721 109.149 182.672 120.175 208.547C120.175 208.547 74.8966 218.725 49.3248 209.224C49.3248 209.224 60.6118 183.297 57.7445 164.554C54.8771 145.811 47.3958 143.078 47.8129 130.062C48.23 117.047 52.2964 95.1542 52.2964 95.1542L66.9983 92.3688C68.4841 92.0825 69.605 90.9111 69.8135 89.4273L71.8989 74.9018L96.8711 72.585Z" fill="#FFEDE5"/>
<path d="M71.925 74.9018C71.925 74.9018 79.1456 94.6596 97.575 82.8413L96.8712 72.585L71.925 74.9018Z" fill="#DD825C"/>
<path d="M113.241 148.102C114.727 145.473 115.796 142.245 116.578 138.653C116.891 136.83 117.308 132.327 115.587 124.96C113.293 115.224 113.893 94.3211 113.893 94.3211L104.874 93.3059C104.874 93.3059 103.518 124.335 83.2642 124.335C63.0101 124.335 63.5053 93.0195 63.5053 93.0195L55.7113 94.5033C55.7113 94.5033 57.0928 126.418 47.839 130.036C47.4219 143.078 54.9032 145.785 57.7706 164.528C57.953 165.751 58.0834 167.001 58.1616 168.276C58.1616 168.276 76.8517 176.346 108.68 167.678C108.471 160.545 109.853 154.089 113.241 148.102Z" fill="#AB8DA8"/>
<path d="M58.1355 168.302C58.1355 168.302 76.8256 176.372 108.653 167.703C108.601 165.933 108.653 164.189 108.81 162.497C86.2097 168.614 64.9911 165.1 57.562 163.486C57.6141 163.825 57.6663 164.189 57.7445 164.554C57.927 165.777 58.0573 167.027 58.1355 168.302Z" fill="#3B2645"/>
<path d="M72.0814 155.495C67.65 155.495 64.913 154.298 64.7826 154.246C64.6523 154.194 64.6002 154.038 64.6523 153.907C64.7044 153.777 64.8608 153.725 64.9912 153.777C65.0172 153.803 68.5363 155.313 73.9061 154.923C75.8872 154.766 77.3991 154.454 78.8849 154.142C81.4656 153.595 83.8898 153.074 87.9041 153.777C92.9351 154.662 99.1912 155.521 103.023 154.22C103.153 154.168 103.31 154.246 103.336 154.376C103.388 154.506 103.31 154.662 103.179 154.688C99.2694 156.016 92.909 155.157 87.8259 154.246C83.9159 153.569 81.648 154.038 79.0153 154.61C77.5034 154.923 75.9654 155.261 73.9583 155.417C73.3066 155.469 72.681 155.495 72.0814 155.495Z" fill="#472938"/>
<path d="M83.6552 210.291C84.1878 210.291 84.6196 209.58 84.6196 208.703C84.6196 207.826 84.1878 207.115 83.6552 207.115C83.1225 207.115 82.6907 207.826 82.6907 208.703C82.6907 209.58 83.1225 210.291 83.6552 210.291Z" fill="#DD825C"/>
<path d="M108.205 60.4146C109.519 56.7765 109.003 53.2579 107.053 52.5555C105.103 51.853 102.457 54.2328 101.143 57.8708C99.8289 61.5088 100.345 65.0274 102.295 65.7299C104.245 66.4323 106.891 64.0526 108.205 60.4146Z" fill="#FFEDE5"/>
<path d="M65.4215 65.7385C67.3717 65.036 67.8874 61.5174 66.5734 57.8794C65.2594 54.2414 62.6133 51.8616 60.6631 52.5641C58.713 53.2665 58.1973 56.7851 59.5113 60.4231C60.8253 64.0612 63.4714 66.4409 65.4215 65.7385Z" fill="#FFEDE5"/>
<path d="M64.2351 61.6001C64.1569 61.6001 64.0787 61.5741 64.0266 61.496L61.472 57.8776C61.3938 57.7735 61.4198 57.5913 61.5241 57.5132C61.6284 57.4351 61.7848 57.4611 61.8891 57.5652L64.4436 61.1836C64.5218 61.2877 64.4958 61.47 64.3915 61.5481C64.3394 61.6001 64.2872 61.6001 64.2351 61.6001Z" fill="#472938"/>
<path d="M103.727 61.1057C103.675 61.1057 103.596 61.0797 103.57 61.0536C103.466 60.9495 103.466 60.7933 103.544 60.6892L106.255 57.5915C106.36 57.4873 106.516 57.4873 106.62 57.5654C106.724 57.6696 106.724 57.8257 106.646 57.9299L103.935 61.0276C103.857 61.0797 103.779 61.1057 103.727 61.1057Z" fill="#472938"/>
<path d="M103.727 51.0833C103.727 68.8888 95.6197 84.0911 83.9417 84.0911C72.2636 84.0911 62.8013 67.6653 62.8013 49.8598C62.8013 32.0543 72.2376 19.6113 83.9417 19.6113C95.6458 19.6113 103.727 33.2778 103.727 51.0833Z" fill="#FFEDE5"/>
<path d="M84.9123 27.977C94.1059 27.0263 100.949 20.378 100.197 13.1277C99.4456 5.87727 91.3834 0.770352 82.1898 1.72103C72.9963 2.67171 66.1529 9.31998 66.9047 16.5704C67.6565 23.8207 75.7188 28.9277 84.9123 27.977Z" fill="#3B2645"/>
<g opacity="0.5">
<g opacity="0.5">
<path opacity="0.5" d="M84.9063 27.9668C93.743 27.0557 100.39 20.8863 100.234 13.988C97.5488 8.91186 90.8496 5.70999 83.4205 6.49094C74.5837 7.40204 67.9366 13.5715 68.093 20.4698C70.804 25.5459 77.4772 28.7478 84.9063 27.9668Z" fill="#3B2645"/>
</g>
</g>
<path d="M103.648 53.7647C103.648 53.7647 95.7502 44.7579 96.7668 34.4755C96.7668 34.4755 89.8851 46.8404 62.8014 53.1139L60.4553 52.6454C60.4553 52.6454 51.8532 12.6611 83.9418 12.557C103.257 12.4789 104.665 24.7918 104.665 24.7918C104.665 24.7918 115.327 27.9676 107.037 52.5673L103.648 53.7647Z" fill="#3B2645"/>
<path d="M83.3423 66.8845C82.0128 66.8845 80.3185 65.8172 80.0839 65.3747C79.8232 64.854 80.5531 61.9125 81.7782 58.6846C83.0816 55.2484 82.3517 53.244 82.3517 53.218C82.2996 53.0878 82.3778 52.9317 82.5081 52.8796C82.6384 52.8275 82.7948 52.9056 82.847 53.0358C82.873 53.1139 83.6551 55.1964 82.2735 58.8408C80.8398 62.6414 80.4749 64.854 80.5531 65.1144C80.6834 65.3747 82.3256 66.442 83.4987 66.3378C84.6977 66.2337 86.4964 65.2185 86.4964 65.1924C86.6267 65.1144 86.7831 65.1664 86.8352 65.2966C86.9134 65.4267 86.8613 65.5829 86.731 65.635C86.6528 65.687 84.8281 66.7283 83.5247 66.8324C83.4726 66.8845 83.3944 66.8845 83.3423 66.8845Z" fill="#472938"/>
<path d="M83.6549 72.8455C80.0838 72.8455 77.6595 70.4246 77.5553 70.3205C77.451 70.2163 77.451 70.0601 77.5553 69.956C77.6595 69.8519 77.8159 69.8519 77.9202 69.956C77.9463 69.9821 80.3184 72.3249 83.6549 72.3249C86.9915 72.3249 89.3636 69.9821 89.3897 69.956C89.494 69.8519 89.6504 69.8519 89.7546 69.956C89.8589 70.0601 89.8589 70.2163 89.7546 70.3205C89.6504 70.4246 87.2261 72.8455 83.6549 72.8455Z" fill="#472938"/>
<path d="M93.2999 56.6283C92.4136 56.6022 91.7359 55.8473 91.762 54.9622L91.8141 53.8169C91.8402 52.9318 92.5961 52.255 93.4824 52.281C94.3687 52.307 95.0464 53.0619 95.0204 53.947L94.9682 55.0924C94.9421 55.9775 94.1862 56.6803 93.2999 56.6283Z" fill="#472938"/>
<path d="M74.74 56.6283C73.8537 56.6803 73.0978 55.9775 73.0717 55.0924L73.0196 53.947C72.9674 53.062 73.6712 52.3071 74.5575 52.281C75.4438 52.229 76.1997 52.9318 76.2258 53.8169L76.2779 54.9623C76.304 55.8473 75.6263 56.6022 74.74 56.6283Z" fill="#472938"/>
<path d="M98.2525 48.2714C98.2525 48.2714 96.2454 46.4752 93.1955 47.0219C90.1457 47.5686 89.4679 47.7247 89.2594 47.4905C89.0509 47.2822 88.7902 45.5641 92.3092 45.0175C95.8283 44.4708 98.07 46.8917 98.2525 48.2714Z" fill="#472938"/>
<path d="M170.85 260.011C170.589 255.664 167.2 241.139 166.392 237.677C165.584 234.214 164.15 223.724 160.683 207.116C157.217 190.508 149.761 174.108 145.591 164.945C141.42 155.782 138.292 131.39 134.747 113.064C131.202 94.7381 120.54 94.66 120.54 94.66L116.317 94.1914L108.549 93.3324L106.151 93.0721C103.701 92.7857 101.798 90.8073 101.615 88.3604L101.251 82.8938L100.781 76.0475C102.762 73.132 104.353 69.5397 105.499 65.5308C105.656 65.6349 105.812 65.713 105.969 65.7651C107.924 66.468 110.556 64.0991 111.886 60.4547C113.189 56.8103 112.668 53.2961 110.739 52.5932C119.028 28.0196 108.367 24.8177 108.367 24.8177C108.367 24.8177 107.872 20.5746 103.571 17.1124C103.857 16.1232 103.988 15.082 103.962 14.0407C103.962 13.7544 103.935 13.468 103.909 13.1817C103.153 5.94493 95.0987 0.842773 85.897 1.7799C76.6954 2.74307 69.8658 9.38107 70.6217 16.6178C70.6739 17.2165 70.8042 17.8153 70.9606 18.3879C59.1522 29.4773 64.1571 52.6713 64.1571 52.6713C62.3845 53.5303 61.9414 56.9405 63.2187 60.4287C64.522 64.021 67.1287 66.3899 69.0577 65.7651C70.5696 70.2685 72.7071 74.2513 75.2877 77.3491L73.5412 89.4537C73.3327 90.9375 72.1858 92.1089 70.726 92.3952L67.2069 93.0721L63.6879 93.7228L56.0242 95.1806C56.0242 95.1806 43.4598 97.3152 39.8626 113.116C35.7179 131.312 33.1894 155.834 29.0187 164.997C24.848 174.16 17.3928 190.56 13.9259 207.168C10.4329 223.724 8.99917 234.214 8.1911 237.677C7.38302 241.139 4.02036 255.664 3.73363 260.011C3.47296 264.359 4.88058 274.641 5.27158 276.437C5.68866 278.207 9.05131 287.449 9.44232 287.839C9.85939 288.256 11.7362 285.913 11.5798 284.481C11.4234 283.049 10.1983 275.422 10.1983 275.422L11.9448 263.968C11.9448 263.968 13.1699 273.756 14.7079 274.459C16.2458 275.162 17.7056 274.719 18.0705 274.511C18.4355 274.303 17.8098 265.738 19.5563 258.866C21.3028 251.994 17.6795 245.33 19.7127 239.212C21.746 233.095 38.2725 198.968 41.3484 187.878C43.6162 179.653 50.133 161.326 54.6948 149.196C54.799 148.935 54.8772 148.701 54.9815 148.441C54.9815 148.415 55.0076 148.389 55.0076 148.389C55.1118 148.155 55.19 147.894 55.2682 147.66V147.634C55.3464 147.4 55.4507 147.165 55.5289 146.931C55.5289 146.905 55.555 146.879 55.555 146.879C55.6332 146.671 55.7114 146.488 55.7635 146.306C57.7446 150.523 59.9342 155.521 61.2637 163.513C61.3158 163.851 61.3679 164.216 61.4461 164.58C61.4983 164.893 61.5243 165.179 61.5765 165.491C61.5765 165.543 61.5765 165.57 61.6025 165.622C61.6286 165.882 61.6547 166.168 61.7068 166.429C61.7068 166.455 61.7068 166.455 61.7068 166.481C61.7589 167.105 61.8111 167.704 61.8632 168.329C62.9059 186.603 53.0525 209.25 53.0525 209.25C51.6188 211.879 50.3155 214.561 49.0903 217.268C30.9216 257.721 35.1966 304.864 35.7701 322.044C36.3696 340.37 32.0946 357.89 27.7153 382.359C23.3361 406.803 27.7153 444.08 27.7153 444.08C28.0542 444.21 28.3931 444.314 28.758 444.418C28.7841 447.542 28.8101 455.585 28.3409 460.375C28.2627 461.13 28.1585 461.859 28.0542 462.588C28.0542 462.64 28.0281 462.692 28.0281 462.692V462.718C26.2295 474.666 20.8076 479.326 19.0871 480.419C18.3833 480.862 17.9923 482.398 17.7577 484.116V484.142C17.7316 484.272 17.7316 484.402 17.7056 484.506C17.7056 484.532 17.7056 484.584 17.7056 484.61C17.7056 484.715 17.6795 484.793 17.6795 484.897C17.6534 485.027 17.6534 485.157 17.6274 485.313C17.497 486.667 17.471 487.995 17.4449 488.958C17.4449 489.739 18.0705 490.363 18.8525 490.363H50.8108C51.5146 490.363 52.0359 489.739 51.9316 489.036C51.7492 487.89 51.5667 486.641 51.3842 485.287C50.4458 478.493 49.4553 469.382 48.6472 461.39C47.7348 452.41 47.031 444.861 46.9268 443.715C47.1092 443.663 47.2135 443.637 47.2135 443.637C46.7964 424.686 51.9056 406.751 56.5977 384.546C61.2897 362.315 58.4223 347.685 64.5481 331.181C70.6739 314.677 85.8449 259.465 85.8449 259.465H92.3617C94.812 283.101 105.969 309.185 114.414 332.535C122.86 355.885 119.028 369.343 125.415 397.327C131.801 425.311 131.123 443.611 131.123 443.611C131.488 443.767 131.853 443.897 132.244 444.028C132.088 445.85 131.41 452.982 130.55 461.416C129.742 469.408 128.725 478.519 127.813 485.313C127.63 486.667 127.448 487.916 127.265 489.062C127.161 489.765 127.683 490.389 128.386 490.389H160.345C161.127 490.389 161.752 489.765 161.752 488.984C161.752 488.021 161.7 486.667 161.57 485.339C161.57 485.209 161.544 485.079 161.518 484.923C161.518 484.819 161.492 484.741 161.492 484.636C161.492 484.61 161.492 484.558 161.492 484.532C161.465 484.402 161.465 484.272 161.439 484.168V484.142C161.205 482.398 160.814 480.862 160.11 480.445C158.39 479.352 152.942 474.719 151.169 462.744V462.718C151.169 462.692 151.169 462.666 151.143 462.614C151.039 461.911 150.934 461.182 150.856 460.401C150.283 454.857 150.413 444.965 150.439 443.377C151.013 443.221 151.325 443.142 151.325 443.142C151.325 443.142 151.664 422.734 151.873 399.904C152.081 377.075 147.598 364.241 145.356 354.063C143.114 343.885 143.323 314.938 141.081 275.006C139.465 247.673 132.036 226.691 127.474 216.123C125.363 211.229 123.877 208.547 123.877 208.547C117.073 192.564 112.668 179.236 112.355 167.704C112.355 167.262 112.329 166.819 112.329 166.376C112.329 165.049 112.381 163.773 112.512 162.498V162.472C112.59 161.639 112.694 160.806 112.824 159.999C112.824 159.973 112.824 159.947 112.824 159.947C112.876 159.53 112.955 159.14 113.033 158.749C113.033 158.723 113.033 158.723 113.033 158.697C113.111 158.307 113.189 157.942 113.267 157.552C113.267 157.526 113.267 157.5 113.294 157.474C113.372 157.083 113.476 156.719 113.58 156.328C113.58 156.276 113.606 156.25 113.606 156.198C113.711 155.834 113.789 155.495 113.919 155.157C113.919 155.131 113.945 155.105 113.945 155.053C114.049 154.688 114.18 154.324 114.31 153.96C114.336 153.907 114.362 153.829 114.362 153.777C114.467 153.439 114.597 153.127 114.727 152.788C114.727 152.762 114.753 152.736 114.753 152.684C114.884 152.346 115.04 151.981 115.17 151.643C115.196 151.565 115.222 151.487 115.275 151.408C115.405 151.096 115.561 150.758 115.718 150.445C115.718 150.419 115.744 150.393 115.744 150.367C115.9 150.029 116.083 149.69 116.239 149.352C116.291 149.274 116.317 149.196 116.369 149.118C116.552 148.779 116.734 148.441 116.917 148.102C117.073 147.816 117.256 147.504 117.412 147.191C117.464 147.113 117.49 147.009 117.542 146.931C117.673 146.697 117.777 146.436 117.881 146.202C117.907 146.124 117.96 146.046 117.986 145.942C118.116 145.655 118.22 145.369 118.351 145.083C118.403 145.187 118.429 145.291 118.481 145.395C118.481 145.421 118.507 145.447 118.507 145.473C118.585 145.682 118.663 145.89 118.742 146.098C118.742 146.124 118.768 146.15 118.768 146.176C118.846 146.384 118.924 146.619 119.028 146.827C119.028 146.853 119.054 146.879 119.054 146.879C119.133 147.113 119.237 147.348 119.315 147.582V147.608C119.393 147.842 119.497 148.076 119.576 148.337C119.576 148.363 119.602 148.389 119.602 148.389C119.706 148.649 119.784 148.883 119.888 149.144C124.45 161.3 130.967 179.626 133.235 187.826C136.285 198.942 152.811 233.043 154.871 239.16C156.93 245.278 153.28 251.942 155.027 258.814C156.773 265.686 156.148 274.251 156.513 274.459C156.878 274.667 158.337 275.11 159.875 274.407C161.413 273.704 162.639 263.916 162.639 263.916L164.385 275.37C164.385 275.37 163.16 282.997 163.003 284.429C162.847 285.861 164.75 288.204 165.141 287.787C165.558 287.371 168.921 278.155 169.312 276.385C169.703 274.667 171.136 264.359 170.85 260.011Z" stroke="white" stroke-miterlimit="10"/>
</svg>
